<svg xmlns="http://www.w3.org/2000/svg" viewBox="0 0 400 400"><path style="fill:#fff" d="M0 0h400v400H0z"/><path d="m322.1 187.7-8.6 65.9-10.7-50.8 19.3-15.1Zm-251.5 1.4 8.6 65.9L90 204.2l-19.3-15.1Z" style="fill:#b77c40"/><path d="M273.6 319.4h-155c-19 0-34.5-15.4-34.5-34.5-6.6-33.5-6.6-67.9 0-101.3 0-9.1 3.7-17.9 10.1-24.4 6.5-6.5 15.2-10.1 24.4-10.1h155c19 0 34.5 15.4 34.5 34.5 4.1 20.9 5.7 42.2 4.7 63.5-.6 12.7-2.2 25.4-4.7 37.8 0 2.3-.2 14.5-34.5 34.5Z" style="fill:#ffebd4"/><path d="M185 57.6c-9.9.8-47.9 4.1-77.9 30.2C93 100 85.7 112.8 81.7 120 77 128.5 68 145 67 167.8c-.7 18.2 3.6 36.3 12.3 52.2 9.2-14.3 20.8-26.9 34.3-37.2 9.9-7.6 20.6-14.2 31.9-19.6 10.5 5.5 21.1 10.7 31.9 15.4 43.3 19 88.9 32.4 135.6 39.8 6.7-15.4 10.3-32 10.7-48.7.2-9.7.5-24.3-6.2-41-12.1-30.1-38.3-46.3-47.3-51.6-36.8-21.9-74.7-20.2-85.2-19.4Z" style="fill:#b77c40"/><path d="M168.8 66.6c-15.9-7.8-22.6-12.7-19.9-14.9 4.6-3.8 37.8 1.2 99.7 14.9" style="fill:#b77c40"/><circle cx="243.3" cy="224.4" r="12" style="fill:#303030"/><circle cx="148.9" cy="224.4" r="12" style="fill:#303030"/><path d="m310.7 288.6-22.6 9.8c4.5 6.3 8.4 13 11.6 20.1 2.8 6.1 5.6 12.5 6.6 19.5s30.1 0 30.1 0c-3.8-25.1-19.7-43.1-25.7-49.3ZM92.9 318.3c3.1-7.1 6.9-13.8 11.3-20.2l-22.1-9.9c-6 6.2-22 24.4-25.6 49.7h30c.9-7 3.7-13.4 6.4-19.6Z" style="fill:#474750"/><path d="M317.4 336.6v-22.3H74.9v22.5h242.5v-.2Zm0 .2H74.9c.3.5.8.9 1.3 1.1H316c.6-.2 1.1-.6 1.3-1.1Z" style="fill:#474750"/><path d="M317.4 319.6v-23.8c0-5.1-9.8-9.2-21.8-9.2H96.7c-12 0-21.8 4.1-21.8 9.2v23.8" style="fill:#474750"/><path d="M165.8 336.9h60.6v1.1h-60.6v-1.1Zm0 1.1h60.6v1h-60.6v-1Zm0-51.7h60.6v50.6h-60.6v-50.6Z" style="fill:#f9f9f9"/><path d="M243 303.8c4.2-6 8.8-11.8 13.8-17.2h-30.3v50.3h.5c3.5-11.9 8.9-23 16.1-33.1Zm-16.1 33.1h-.5v1.1h.2l.3-1.1Zm-.3 1.1h-.2v.7l.2-.7Zm-60.8-1.1h-.5l.3 1.1h.2v-1.1Zm0 1.1h-.2l.2.7v-.7Zm0-51.4h-30.3c5 5.4 9.6 11.2 13.8 17.2 7.2 10.1 12.6 21.2 16.1 33.1h.5v-50.3Z" style="fill:#d93d48"/></svg>